<?xml version="1.0" standalone="no"?>
<!DOCTYPE svg PUBLIC "-//W3C//DTD SVG 20010904//EN"
 "http://www.w3.org/TR/2001/REC-SVG-20010904/DTD/svg10.dtd">
<svg version="1.0" xmlns="http://www.w3.org/2000/svg"
 width="1280.000000pt" height="956.000000pt" viewBox="0 0 1280.000000 956.000000"
 preserveAspectRatio="xMidYMid meet">
<metadata>
Created by potrace 1.15, written by Peter Selinger 2001-2017
</metadata>
<g transform="translate(0.000000,956.000000) scale(0.100000,-0.100000)"
fill="#000000" stroke="none">
<path d="M10725 9554 c-219 -33 -483 -140 -730 -296 -177 -112 -5698 -3903
-5816 -3993 -343 -264 -581 -486 -697 -650 -71 -100 -157 -269 -197 -389 -14
-43 -60 -203 -101 -355 -90 -334 -105 -445 -86 -655 14 -157 37 -241 96 -361
82 -165 198 -269 497 -443 231 -134 461 -222 739 -283 86 -18 136 -23 275 -23
150 0 182 3 270 26 245 63 459 175 960 506 138 90 1406 952 2819 1915 1938
1321 2574 1759 2592 1786 48 74 40 173 -19 231 -63 63 -141 77 -218 37 -24
-12 -1173 -792 -2554 -1733 -1380 -941 -2611 -1779 -2735 -1861 -545 -362
-760 -478 -957 -519 -151 -32 -416 0 -600 70 -21 8 -83 31 -137 51 -105 39
-345 174 -459 258 -38 27 -84 70 -102 94 -70 91 -100 230 -93 420 4 107 12
143 77 387 76 284 123 425 174 516 102 185 290 372 667 661 113 87 5427 3739
5750 3951 162 107 362 207 485 244 107 31 255 42 336 25 133 -29 290 -143 407
-295 26 -34 238 -293 472 -576 233 -283 445 -549 471 -591 92 -154 128 -332
95 -471 -58 -246 -307 -521 -836 -925 -386 -293 -1065 -783 -1444 -1041 -232
-157 -1008 -687 -1726 -1177 -2098 -1434 -3151 -2140 -4160 -2792 -256 -165
-532 -347 -615 -404 -447 -307 -715 -444 -980 -501 -102 -22 -417 -17 -555 10
-243 45 -497 121 -802 236 -537 204 -730 332 -791 521 -42 129 -45 265 -17
770 25 459 47 568 159 800 157 323 463 647 906 961 55 39 1797 1237 3870 2663
2244 1544 3787 2611 3812 2637 146 154 -42 387 -227 283 -67 -37 -7633 -5245
-7785 -5358 -530 -395 -853 -792 -1004 -1237 -72 -211 -93 -352 -113 -759 -33
-669 -5 -877 146 -1090 150 -209 435 -371 1036 -590 277 -100 552 -175 795
-217 188 -32 473 -32 634 1 327 65 598 199 1116 551 83 56 373 246 645 423
1046 677 2090 1378 4220 2833 668 457 1406 960 1640 1119 391 266 1265 897
1559 1127 599 468 847 788 901 1157 32 217 -41 498 -186 717 -22 32 -233 294
-469 580 -237 287 -464 563 -505 614 -160 197 -350 327 -558 381 -75 20 -278
33 -347 23z"/>
</g>
</svg>
